HIERARCHY
ROOT hip
{
	OFFSET 0.000000 0.000000 0.000000 
	CHANNELS 6 Xposition Yposition Zposition Xrotation Zrotation Yrotation
	JOINT abdomen
	{
		OFFSET 0.000000 3.402643 0.000000 
		CHANNELS 3 Xrotation Zrotation Yrotation
		JOINT chest
		{
			OFFSET 0.000000 8.438565 -0.680529 
			CHANNELS 3 Xrotation Zrotation Yrotation
			JOINT neck
			{
				OFFSET 0.000000 10.207942 -0.272212 
				CHANNELS 3 Xrotation Zrotation Yrotation
				JOINT head
				{
					OFFSET 0.000000 3.130431 0.000000 
					CHANNELS 3 Xrotation Zrotation Yrotation
					End Site
					{
						OFFSET 0.000000 3.130435 0.000000 
					}
				}
			}
			JOINT lCollar
			{
				OFFSET 3.470700 6.669187 -0.816635 
				CHANNELS 3 Yrotation Zrotation Xrotation
				JOINT lShldr
				{
					OFFSET 3.198488 0.000000 0.000000 
					CHANNELS 3 Zrotation Yrotation Xrotation
					JOINT lForeArm
					{
						OFFSET 10.139888 0.000000 0.000000 
						CHANNELS 3 Yrotation Zrotation Xrotation
						JOINT lHand
						{
							OFFSET 8.370511 0.000000 0.000000 
							CHANNELS 3 Zrotation Yrotation Xrotation
							End Site
							{
								OFFSET 4.083176 0.000000 0.000000 
							}
						}
					}
				}
			}
			JOINT rCollar
			{
				OFFSET -3.470700 6.669187 -0.816635 
				CHANNELS 3 Yrotation Zrotation Xrotation
				JOINT rShldr
				{
					OFFSET -3.198488 0.000000 0.000000 
					CHANNELS 3 Zrotation Yrotation Xrotation
					JOINT rForeArm
					{
						OFFSET -10.139888 0.000000 0.000000 
						CHANNELS 3 Yrotation Zrotation Xrotation
						JOINT rHand
						{
							OFFSET -8.370511 0.000000 0.000000 
							CHANNELS 3 Zrotation Yrotation Xrotation
							End Site
							{
								OFFSET -4.083176 0.000000 0.000000 
							}
						}
					}
				}
			}
		}
	}
	JOINT lThigh
	{
		OFFSET 5.308129 -1.633274 1.361059 
		CHANNELS 3 Xrotation Zrotation Yrotation
		JOINT lShin
		{
			OFFSET -2.041588 -20.007561 0.000000 
			CHANNELS 3 Xrotation Zrotation Yrotation
			JOINT lFoot
			{
				OFFSET 0.000000 -19.190928 -1.224953 
				CHANNELS 3 Xrotation Yrotation Zrotation
				End Site
				{
					OFFSET 0.000000 -2.449906 4.627600 
				}
			}
		}
	}
	JOINT rThigh
	{
		OFFSET -5.308129 -1.633274 1.361059 
		CHANNELS 3 Xrotation Zrotation Yrotation
		JOINT rShin
		{
			OFFSET 2.041588 -20.007561 0.000000 
			CHANNELS 3 Xrotation Zrotation Yrotation
			JOINT rFoot
			{
				OFFSET 0.000000 -19.190928 -1.224953 
				CHANNELS 3 Xrotation Yrotation Zrotation
				End Site
				{
					OFFSET 0.000000 -2.449906 4.627600 
				}
			}
		}
	}
}
MOTION
Frames: 10
Frame Time: 0.011111
24.182474 50.725994 -23.248381 4.445132 2.627004 -5.555021 18.652969 -6.539031 4.290817 -22.711853 1.436186 1.820918 -11.781148 0.136875 0.074092 26.329144 2.793717 1.045635 -7.198545 -2.255300 -0.324897 -67.860374 -33.616482 7.800181 -44.498489 6.232663 6.019242 8.524705 12.647240 -39.632217 5.113256 1.510366 0.237230 76.664810 9.102781 6.712696 47.646172 -7.134307 7.226129 -8.533279 -12.636986 41.322414 -10.200434 -0.009825 3.910451 30.123518 -5.328216 -4.864355 -22.774704 -5.191767 -4.677945 -25.551033 -6.346327 0.729692 62.388798 2.442732 8.330029 -18.447556 7.955726 5.597685 
24.196669 50.703541 -22.792555 4.437022 2.760783 -5.398092 18.678047 -6.619032 4.150485 -22.877865 1.401465 1.788728 -11.694549 0.331123 0.000945 26.440065 2.508558 0.894117 -7.198545 -2.255300 -0.324897 -67.375336 -34.392105 9.984935 -45.032532 6.391572 6.219077 8.524705 12.647240 -38.030651 5.113256 1.510366 0.237230 77.059387 8.701724 4.552424 46.817287 -6.909743 6.904985 -8.533279 -12.636986 39.457180 -9.509576 -0.273556 3.749951 29.872757 -5.347027 -4.836546 -23.117912 -5.397935 -4.764060 -26.573338 -6.345816 0.576102 61.245918 2.569648 8.235645 -19.521030 8.054842 5.703010 
24.212839 50.700905 -22.327820 4.360131 2.783479 -5.282036 18.864614 -6.603571 3.925933 -22.946276 1.450432 1.726862 -11.917669 0.591000 0.002988 26.600960 2.163494 0.878210 -7.198545 -2.255300 -0.324897 -67.108658 -35.157784 10.955659 -45.928677 6.653056 6.553683 8.524705 12.647240 -37.727917 5.113256 1.510366 0.237230 77.423965 8.307430 2.765288 46.300365 -6.765216 6.705745 -8.533279 -12.636986 38.256004 -8.635918 -0.429766 3.756852 29.522732 -5.366695 -4.791459 -23.443260 -5.440946 -4.780334 -27.429491 -6.219891 0.508619 59.936371 2.726133 8.122660 -20.548653 8.133776 5.830725 
24.240900 50.722359 -21.865393 4.321380 2.696833 -5.221655 18.973150 -6.378160 3.675753 -22.985434 1.575478 1.633702 -11.856319 0.625809 0.073896 26.404079 1.992119 0.975727 -7.198545 -2.255300 -0.324897 -66.953369 -35.968346 11.665078 -46.682285 6.863595 6.842212 8.524705 12.647240 -37.249405 5.113256 1.510366 0.237230 77.473335 7.654676 1.984112 46.052879 -6.695836 6.605491 -8.533279 -12.636986 37.689598 -7.718456 -0.459079 3.845693 28.962744 -5.396467 -4.709190 -23.660431 -5.499583 -4.821922 -28.233133 -6.043324 0.441777 58.459808 2.910387 7.988383 -21.017065 8.535511 6.032813 
24.255421 50.758007 -21.401976 4.361957 2.712533 -4.993635 18.984146 -6.240894 3.207623 -23.180939 1.790949 1.493398 -11.251770 0.541042 0.054979 25.804495 1.752146 0.861250 -7.198545 -2.255300 -0.324897 -66.687477 -36.566227 12.944069 -47.478703 7.076622 7.155373 8.524705 12.647240 -35.765026 5.113256 1.510366 0.237230 77.430748 6.943322 0.843008 45.579121 -6.565243 6.435984 -8.533279 -12.636986 36.996243 -6.773738 -0.566215 3.697339 28.228298 -5.453367 -4.618066 -23.727350 -5.818335 -4.963157 -29.077106 -6.004865 0.290722 56.873707 3.068054 7.875109 -21.058313 9.013895 6.238891 
24.253439 50.773521 -20.920076 4.247451 3.009982 -4.790295 19.074432 -6.512547 2.754972 -23.210402 1.944122 1.388955 -11.156061 0.375736 0.025188 25.796864 1.967885 0.805534 -7.198545 -2.255300 -0.324897 -66.257507 -37.261059 14.163906 -48.401955 7.312850 7.513513 8.524705 12.647240 -34.241589 5.113256 1.510366 0.237230 77.664734 6.486444 -0.893678 45.085033 -6.419150 6.241847 -8.533279 -12.636986 36.439602 -5.528089 -0.995680 3.509451 27.338644 -5.477670 -4.514768 -23.744200 -6.253438 -5.175724 -29.745750 -6.210710 0.327597 55.199898 3.244026 7.702249 -21.190134 8.966119 6.223467 
24.275555 50.778473 -20.430256 4.062523 3.164907 -4.855916 19.217230 -6.583565 2.593342 -23.015060 1.918500 1.357209 -11.408514 0.134290 0.111491 25.982481 2.496424 1.059166 -7.198545 -2.255300 -0.324897 -65.735527 -38.241005 15.162083 -49.130268 7.493416 7.799926 8.524705 12.647240 -32.796272 5.113256 1.510366 0.237230 77.916573 6.139437 -2.349148 44.817768 -6.340897 6.146645 -8.533279 -12.636986 35.707176 -4.212280 -1.326757 3.269898 26.412931 -5.531352 -4.385035 -23.803654 -6.331946 -5.208199 -30.216228 -6.180116 0.507022 53.376827 3.429577 7.536315 -21.278315 8.007897 5.814776 
24.296019 50.797283 -19.958918 4.032848 3.096295 -4.892097 19.288219 -6.373819 2.452549 -22.995588 1.984676 1.306719 -11.514086 0.164027 0.158987 26.088379 2.345214 1.125358 -7.198545 -2.255300 -0.324897 -65.319069 -39.106709 15.964708 -49.734787 7.637677 8.043214 8.524705 12.647240 -31.878305 5.113256 1.510366 0.237230 77.974571 5.585795 -3.241636 44.581573 -6.270736 6.060319 -8.533279 -12.636986 35.082176 -3.137582 -1.374621 2.994707 25.523396 -5.589672 -4.278543 -23.830896 -6.410532 -5.249817 -30.827894 -5.878507 0.789185 51.404865 3.634846 7.342660 -20.810507 7.503200 5.596775 
24.296019 50.821381 -19.491541 4.159508 3.005469 -4.833863 19.156601 -6.212142 2.283150 -23.083626 2.130961 1.239871 -11.600258 0.327672 0.178302 26.513035 1.992688 1.119490 -7.198545 -2.255300 -0.324897 -65.035301 -39.742702 16.646048 -50.423824 7.794819 8.320566 8.524705 12.647240 -31.263073 5.113256 1.510366 0.237230 78.104836 4.902194 -4.310891 44.344765 -6.192642 5.966861 -8.533279 -12.636986 34.506008 -2.266245 -1.344349 2.885466 24.659037 -5.613707 -4.157474 -23.876226 -6.535951 -5.299483 -31.498394 -5.565698 0.987189 49.342934 3.847507 7.109682 -20.009539 8.256815 5.838120 
24.298660 50.839535 -19.004688 4.344430 2.881068 -4.785769 18.907297 -5.941926 2.076564 -23.132662 2.324322 1.152822 -11.480313 0.380433 0.243530 26.491138 1.760318 1.210498 -7.198545 -2.255300 -0.324897 -64.830711 -40.310146 17.143982 -51.302994 7.987932 8.681680 8.524705 12.647240 -30.481823 5.113256 1.510366 0.237230 78.144096 4.150255 -5.290225 44.202202 -6.156163 5.913242 -8.533279 -12.636986 33.802879 -1.422678 -1.267544 2.947585 23.798969 -5.656607 -4.030150 -23.874279 -6.643817 -5.346227 -32.044678 -5.252844 1.068209 47.268700 4.025946 6.903487 -19.470125 8.705194 5.982227 
